<svg xmlns="http://www.w3.org/2000/svg" viewBox="0 0 720 440">
  <defs>
    <linearGradient id="g" x1="0" x2="1" y1="0" y2="1"><stop stop-color="#0A1F44"/><stop offset="1" stop-color="#22C7D8"/></linearGradient>
    <filter id="s" x="-20%" y="-20%" width="140%" height="140%"><feDropShadow dx="0" dy="22" stdDeviation="28" flood-color="#0A1F44" flood-opacity=".22"/></filter>
  </defs>
  <rect width="720" height="440" rx="28" fill="#F5F6FA"/>
  <path d="M0 0h720v180H0z" fill="url(#g)"/>
  <g filter="url(#s)">
    <rect x="96" y="82" width="528" height="276" rx="28" fill="#fff"/>
    <rect x="126" y="112" width="468" height="92" rx="20" fill="#EEF5FF"/>
    <circle cx="170" cy="248" r="34" fill="#F26522"/>
    <path d="M170 292s58-43 58-98a58 58 0 0 0-116 0c0 55 58 98 58 98Z" fill="#0A1F44"/>
    <circle cx="170" cy="194" r="18" fill="#fff"/>
    <rect x="246" y="238" width="236" height="16" rx="8" fill="#0A1F44" opacity=".9"/>
    <rect x="246" y="270" width="300" height="12" rx="6" fill="#CBD5E1"/>
    <rect x="246" y="302" width="188" height="12" rx="6" fill="#CBD5E1"/>
    <rect x="126" y="330" width="468" height="1" fill="#E2E8F0"/>
  </g>
</svg>
